<?xml version="1.0" encoding="UTF-8" standalone="no"?>
<svg width="118px" height="77px" viewBox="0 0 118 77" version="1.1" xmlns="http://www.w3.org/2000/svg" xmlns:xlink="http://www.w3.org/1999/xlink">
    <!-- Generator: Sketch 41.2 (35397) - http://www.bohemiancoding.com/sketch -->
    <title>Page 1</title>
    <desc>Created with Sketch.</desc>
    <defs></defs>
    <g id="Page-1" stroke="none" stroke-width="1" fill="none" fill-rule="evenodd">
        <g id="Homepage-V2_Main" transform="translate(-530.000000, -953.000000)" stroke="#344154">
            <g id="Product-Section" transform="translate(0.000000, 750.000000)">
                <g id="Group-12" transform="translate(190.000000, 156.000000)">
                    <g id="Huddle" transform="translate(270.000000, 0.000000)">
                        <g id="Page-1" transform="translate(71.000000, 48.000000)">
                            <path d="M10.1950521,74.9582432 L35.3605169,50.2463514 L80.5694746,50.2463514 L105.734939,74.9582432 L10.1950521,74.9582432 L10.1950521,74.9582432 Z M28.623531,41.2321622 L87.306869,41.2321622 L87.306869,0.405 L28.623531,0.405 L28.623531,41.2321622 Z M77.8316296,5.12635135 L83.130869,5.12635135 L77.8316296,5.12635135 Z" id="Stroke-1" stroke-width="1.7" stroke-linecap="round" stroke-linejoin="round"></path>
                            <path d="M21.8022,44.0922162 L21.8013831,44.0922162 L21.8022,44.0922162 L21.8022,44.0922162 Z M27.5217352,57.9441081 C26.1587352,56.7303243 24.3934113,55.9150541 20.0609746,54.4705946 L20.0609746,53.8973514 C20.1026366,53.8641081 20.1418479,53.8361351 20.1839183,53.8020811 C21.4754394,52.7573514 21.8908338,49.6632973 21.9770169,48.8792432 C22.5361859,48.4568108 22.9295239,47.5997838 23.0193831,46.581 C23.1398761,45.2119459 22.7910592,44.1712703 22.1277352,43.8274865 C22.0395099,43.3807297 21.8246648,42.306 21.7209183,41.8657297 C20.6871296,37.4841081 19.4123549,37.2891081 15.1489465,37.2891081 C10.8859465,37.2891081 9.61117183,37.4841081 8.5773831,41.8653243 C8.4936507,42.2208649 8.26287606,43.3657297 8.1705662,43.8287027 C7.5052,44.1773514 7.1588338,45.2155946 7.27891831,46.5814054 C7.36918592,47.6001892 7.76252394,48.4572162 8.32169296,48.8792432 C8.40787606,49.6637027 8.82327042,52.7577568 10.1147915,53.8020811 C10.156862,53.8365405 10.1964817,53.8645135 10.2385521,53.8981622 L10.2385521,54.4705946 C4.4610169,56.3962703 2.55232676,57.7872162 1.23629859,59.5235676 C0.853580282,60.0282973 0.518650704,62.0982973 0.0795661972,66.6684324 L0.0407633803,67.0714054 L18.227031,67.0714054 L27.5217352,57.9441081 Z" id="Stroke-3" stroke-width="1.7" stroke-linecap="round" stroke-linejoin="round"></path>
                            <path d="M94.1237479,44.0922162 L94.122931,44.0922162 L94.1237479,44.0922162 L94.1237479,44.0922162 Z M97.6985085,67.0714054 L115.884368,67.0714054 L115.845565,66.6684324 C115.40648,62.0982973 115.071551,60.0282973 114.688832,59.5235676 C113.372804,57.7872162 111.464114,56.3962703 105.686579,54.4705946 L105.686579,53.8981622 C105.728649,53.8645135 105.768269,53.8365405 105.810748,53.8020811 C107.101861,52.7577568 107.517255,49.6637027 107.603438,48.8792432 C108.163015,48.4572162 108.555945,47.6001892 108.646213,46.5814054 C108.766297,45.2155946 108.419931,44.1773514 107.754565,43.8287027 C107.662255,43.3657297 107.43148,42.2208649 107.347748,41.8653243 C106.313959,37.4841081 105.039185,37.2891081 100.776185,37.2891081 C96.5127761,37.2891081 95.2380014,37.4841081 94.2042127,41.8657297 C94.1004662,42.306 93.8856211,43.3807297 93.7973958,43.8274865 C93.1340718,44.1712703 92.7852549,45.2119459 92.9061563,46.581 C92.995607,47.5997838 93.3889451,48.4568108 93.9481141,48.8792432 C94.0342972,49.6632973 94.4501,52.7573514 95.7412127,53.8020811 C95.7832831,53.8361351 95.8224944,53.8641081 95.8641563,53.8973514 L95.8641563,54.4705946 C91.5321282,55.9150541 89.7663958,56.7303243 88.4038042,57.9441081 L97.6985085,67.0714054 Z" id="Stroke-5" stroke-width="1.7" stroke-linecap="round" stroke-linejoin="round"></path>
                            <path d="M42.5536471,40.4150832 C43.0696471,35.196495 43.4091765,33.7042597 43.5997647,33.396495 C44.9134118,31.6494362 46.9696471,30.1332009 52.8807059,28.0917891 L52.8807059,28.4941421 C52.8807059,31.6988479 55.4875294,34.3056715 58.6922353,34.3056715 L59.0352941,34.3056715 C62.24,34.3056715 64.8468235,31.6988479 64.8468235,28.4941421 L64.8468235,28.0917891 C70.7571765,30.1332009 72.812,31.6494362 74.12,33.3873185 C74.3169412,33.7042597 74.6571765,35.196495 75.1724706,40.4150832 L42.5536471,40.4150832 Z M63.4350588,28.4941421 C63.4350588,30.9202597 61.4614118,32.8939068 59.0352941,32.8939068 L58.6922353,32.8939068 C56.2661176,32.8939068 54.2924706,30.9202597 54.2924706,28.4941421 L54.2924706,27.3103774 C55.9717647,28.4489656 57.4188235,28.9783774 58.8567059,28.9783774 L58.8574118,28.9783774 L58.9061176,28.9790832 C60.3164706,28.9783774 61.7564706,28.4496715 63.4350588,27.3103774 L63.4350588,28.4941421 Z M58.8630588,7.81178912 C63.4011765,7.81178912 64.3456471,7.81178912 65.3945882,12.2941421 C65.4757647,12.6386126 65.6169412,13.332495 65.7305882,13.9014362 L64.5736471,14.748495 L56.0875294,13.1743774 L52.8489412,14.6729656 C52.5581176,14.4350832 52.2334118,14.1668479 51.9863529,13.9557891 C52.1077647,13.3473185 52.2644706,12.5793185 52.3315294,12.2941421 C53.3811765,7.81178912 54.3256471,7.81178912 58.8630588,7.81178912 L58.8630588,7.81178912 Z M52.0068235,19.5739068 L51.6863529,19.3903774 C51.3355294,19.1899068 50.936,18.4621421 50.8477647,17.4576715 C50.7284706,16.0840244 51.0955294,15.3809656 51.3242353,15.3209656 L51.3927059,15.3012009 C51.8014118,15.6421421 52.2242353,15.984495 52.3025882,16.0473185 L52.6435294,16.3233185 L56.2724706,14.6447303 L64.916,16.2477891 L66.2437647,15.2757891 L66.4188235,15.3252009 C66.6312941,15.3809656 66.9983529,16.0840244 66.8783529,17.4576715 C66.7901176,18.4621421 66.3905882,19.1899068 66.0397647,19.3903774 L65.7192941,19.5739068 L65.6868235,19.9416715 C65.5484706,21.5292009 64.9668235,24.3414362 63.9969412,25.1320244 C60.0637647,28.3353185 57.776,28.428495 53.7291765,25.1320244 C52.7592941,24.3414362 52.1776471,21.5292009 52.0392941,19.9416715 L52.0068235,19.5739068 Z M76.6527059,41.0539068 C76.0484706,34.7150832 75.6694118,33.0993185 75.2536471,32.5473185 C73.7077647,30.4917891 71.4764706,28.8449656 64.8468235,26.6002597 L64.8468235,26.2593185 C64.8609412,26.2473185 64.8743529,26.2381421 64.8891765,26.2261421 C66.4258824,24.9732009 66.9327059,21.5270832 67.0604706,20.3892009 C67.7204706,19.8252009 68.1785882,18.7910832 68.2844706,17.580495 C68.4305882,15.912495 68.0232941,14.6609656 67.2207059,14.1569656 C67.1063529,13.5767303 66.8825882,12.4522597 66.7696471,11.9722597 C65.5244706,6.65343618 63.8783529,6.40002441 58.8630588,6.40002441 C53.8477647,6.40002441 52.2023529,6.65343618 50.9564706,11.9715538 C50.8632941,12.3696715 50.624,13.5626126 50.5054118,14.1619068 C49.7007059,14.6722597 49.2969412,15.9195538 49.4416471,17.580495 C49.5475294,18.7910832 50.0056471,19.8252009 50.6656471,20.3892009 C50.7934118,21.5270832 51.3002353,24.9732009 52.8369412,26.2261421 C52.8517647,26.2381421 52.8658824,26.2480244 52.8807059,26.2600244 L52.8807059,26.5995538 C46.2503529,28.8442597 44.0183529,30.4917891 42.4724706,32.5473185 C42.0567059,33.0993185 41.6776471,34.7150832 41.0734118,41.0539068 L41,41.8268479 L76.7261176,41.8268479 L76.6527059,41.0539068 Z" id="Fill-1" stroke-width="0.2" fill="#344154"></path>
                        </g>
                    </g>
                </g>
            </g>
        </g>
    </g>
</svg>