<?xml version="1.0" encoding="UTF-8" standalone="no"?>
<svg width="84px" height="84px" viewBox="0 0 84 84" version="1.1" xmlns="http://www.w3.org/2000/svg" xmlns:xlink="http://www.w3.org/1999/xlink">
    <!-- Generator: Sketch 41.2 (35397) - http://www.bohemiancoding.com/sketch -->
    <title>Page 1</title>
    <desc>Created with Sketch.</desc>
    <defs></defs>
    <g id="Page-1" stroke="none" stroke-width="1" fill="none" fill-rule="evenodd">
        <g id="Homepage-V2_Main" transform="translate(-813.000000, -950.000000)" fill="#344154">
            <g id="Product-Section" transform="translate(0.000000, 750.000000)">
                <g id="Group-12" transform="translate(190.000000, 156.000000)">
                    <g id="onSocial" transform="translate(540.000000, 0.000000)">
                        <g id="Page-1" transform="translate(83.000000, 44.000000)">
                            <path d="M40.1752644,0.857562233 C39.631009,0.893845927 39.116702,0.928977758 38.5983635,0.928977758 L38.5983635,0.928977758 C17.3148093,0.928977758 0,19.5407851 0,42.4173663 L0,42.4173663 C0,65.2956754 17.3148093,83.9080586 38.5983635,83.9080586 L38.5983635,83.9080586 C39.0141862,83.9080586 39.5233098,83.9253366 40.0629577,83.9431905 L40.0629577,83.9431905 C40.6866917,83.963924 41.3547724,83.9858094 41.9808101,83.9858094 L41.9808101,83.9858094 C42.5014523,83.9858094 42.9927221,83.9708352 43.4033613,83.9259125 L43.4033613,83.9259125 C43.9096052,83.8717749 44.2753218,83.4179408 44.2206083,82.9116969 L44.2206083,82.9116969 C44.1664708,82.4054529 43.7114848,82.0420401 43.2063927,82.0938739 L43.2063927,82.0938739 C42.4306128,82.1779599 41.2056061,82.1376447 40.1240065,82.101937 L40.1240065,82.101937 C39.5618972,82.0823553 39.0320401,82.0650773 38.5983635,82.0650773 L38.5983635,82.0650773 C18.3313286,82.0650773 1.84240536,64.279156 1.84240536,42.4173663 L1.84240536,42.4173663 C1.84240536,21.4453911 17.0164767,4.22445868 36.1448947,2.85892473 L36.1448947,2.85892473 C30.9701488,5.19893504 26.0966151,9.25694948 22.1969819,14.5837413 L22.1969819,14.5837413 C16.4244189,22.4676698 13.2458521,32.3529607 13.2458521,42.4173663 L13.2458521,42.4173663 C13.2458521,49.4880792 14.9448505,56.5754942 18.159701,62.913622 L18.159701,62.913622 C18.3900736,63.3674562 18.943544,63.5482987 19.39853,63.318502 L19.39853,63.318502 C19.8523641,63.0887053 20.0337826,62.5335071 19.8034099,62.079673 L19.8034099,62.079673 C16.71872,55.9989866 15.0888334,49.2001134 15.0888334,42.4173663 L15.0888334,42.4173663 C15.0888334,32.7411386 18.1406952,23.2434497 23.6840374,15.6722522 L23.6840374,15.6722522 C28.9330785,8.50305494 35.9911209,3.76544115 43.0485874,2.67577847 L43.0485874,2.67577847 C43.5029975,2.60493887 43.8364619,2.21042569 43.8289748,1.7502563 L43.8289748,1.7502563 C43.8220636,1.29008691 43.4765046,0.905940492 43.0197908,0.850075122 L43.0197908,0.850075122 C42.6241258,0.801696863 42.2301885,0.783842981 41.8397069,0.783842981 L41.8397069,0.783842981 C41.2764457,0.783842981 40.7206717,0.821278539 40.1752644,0.857562233" id="Fill-1"></path>
                            <path d="M48.0937487,0.890390337 C47.8270924,0.909396082 47.5696509,0.928977758 47.3381264,0.928977758 L47.3381264,0.928977758 C40.0036368,0.928977758 33.9471395,8.300327 30.7201944,21.1533937 L30.7201944,21.1533937 C30.5963691,21.6469672 30.8964295,22.1474518 31.3900029,22.2712771 L31.3900029,22.2712771 C31.46545,22.2902828 31.540897,22.2994977 31.6151922,22.2994977 L31.6151922,22.2994977 C32.0275593,22.2994977 32.4030667,22.0207468 32.5078863,21.6014686 L32.5078863,21.6014686 C35.5119458,9.63533657 40.9176403,2.77138312 47.3381264,2.77138312 L47.3381264,2.77138312 C47.6226366,2.77138312 47.9284563,2.74949772 48.2244852,2.72876418 L48.2244852,2.72876418 C48.7284254,2.69305641 49.3009015,2.65158934 49.6608587,2.73625129 L49.6608587,2.73625129 C50.1544322,2.85086169 50.6520371,2.54331418 50.7677994,2.04743703 L50.7677994,2.04743703 C50.8824098,1.55155988 50.5742863,1.05625865 50.0789851,0.940496391 L50.0789851,0.940496391 C49.7627986,0.867929003 49.4253027,0.843739873 49.0872308,0.843739873 L49.0872308,0.843739873 C48.7491589,0.843739873 48.4105111,0.867929003 48.0937487,0.890390337" id="Fill-3"></path>
                            <path d="M44.9629842,0.575931654 C43.5133643,0.575931654 42.0263087,0.666928856 40.540981,0.847771395 L40.540981,0.847771395 C40.0842672,0.903636765 39.7381323,1.28778318 39.7306452,1.74795257 L39.7306452,1.74795257 C39.723158,2.20754603 40.0566225,2.60321108 40.5110326,2.67289881 L40.5110326,2.67289881 C55.9292989,5.05552806 68.4725144,22.7262631 68.4725144,42.0648962 L68.4725144,42.0648962 C68.4725144,49.0797437 66.8472352,56.0704021 63.7723361,62.2800972 L63.7723361,62.2800972 C63.5465709,62.7362351 63.7325968,63.2897054 64.1887347,63.5148947 L64.1887347,63.5148947 C64.6454485,63.7406599 65.197767,63.554634 65.4241081,63.0984961 L65.4241081,63.0984961 C68.6245603,56.635967 70.3154957,49.3625261 70.3154957,42.0648962 L70.3154957,42.0648962 C70.3154957,24.3181382 60.1024996,7.89890264 46.5905671,2.45750037 L46.5905671,2.45750037 C66.1054353,3.37899101 81.7183665,20.7928605 81.7183665,42.0648962 L81.7183665,42.0648962 C81.7183665,64.1340212 65.2300191,82.0886905 44.9629842,82.0886905 L44.9629842,82.0886905 C44.5511931,82.0886905 44.1422816,82.0996332 43.7339461,82.1111519 L43.7339461,82.1111519 C42.8677449,82.135341 42.0499219,82.1572264 41.2511047,82.0702607 L41.2511047,82.0702607 C40.7442849,82.017275 40.2898748,82.3812638 40.2357372,82.8875077 L40.2357372,82.8875077 C40.1804478,83.3931757 40.5467403,83.8481617 41.0524083,83.9028752 L41.0524083,83.9028752 C41.5632597,83.9581647 42.0729592,83.9754426 42.5774753,83.9754426 L42.5774753,83.9754426 C42.9840831,83.9754426 43.3872352,83.9644999 43.7846281,83.9529813 L43.7846281,83.9529813 C44.1756857,83.9420386 44.5684711,83.9316718 44.9629842,83.9316718 L44.9629842,83.9316718 C66.2459626,83.9316718 83.5613478,65.1511165 83.5613478,42.0648962 L83.5613478,42.0648962 C83.5613478,19.187739 66.2459626,0.575931654 44.9629842,0.575931654 L44.9629842,0.575931654 Z" id="Fill-5"></path>
                            <path d="M36.1811784,0.92955369 C35.3391663,0.968717042 34.524223,1.07871999 33.7588098,1.25610694 L33.7588098,1.25610694 C33.2635086,1.37129327 32.9542333,1.86659449 33.0694196,2.36189571 L33.0694196,2.36189571 C33.184606,2.8583488 33.681635,3.1658963 34.1757844,3.05186184 L34.1757844,3.05186184 C34.8323464,2.89923995 35.535559,2.80478716 36.2664163,2.77080719 L36.2664163,2.77080719 C44.4515569,2.3780218 48.4231816,13.5706776 50.063435,20.2704905 L50.063435,20.2704905 C50.1665267,20.6914965 50.543186,20.9731271 50.9578568,20.9731271 L50.9578568,20.9731271 C51.0304242,20.9731271 51.1041435,20.9644881 51.1778627,20.9466343 L51.1778627,20.9466343 C51.6714361,20.8256886 51.9743762,20.3263559 51.8534305,19.8327824 L51.8534305,19.8327824 C48.8614656,7.61036088 43.4805362,0.917459125 36.6793593,0.918035057 L36.6793593,0.918035057 C36.5140669,0.918035057 36.3476226,0.922066578 36.1811784,0.92955369" id="Fill-8"></path>
                            <path d="M9.32087789,16.6864678 C8.81233024,16.6864678 8.39938724,17.0988349 8.39938724,17.6073825 L8.39938724,17.6073825 C8.39938724,18.1165061 8.81233024,18.5288732 9.32087789,18.5288732 L9.32087789,18.5288732 L73.6104006,18.5288732 C74.1195242,18.5288732 74.5313154,18.1165061 74.5313154,17.6073825 L74.5313154,17.6073825 C74.5313154,17.0988349 74.1195242,16.6864678 73.6104006,16.6864678 L73.6104006,16.6864678 L9.32087789,16.6864678 Z" id="Fill-11"></path>
                            <path d="M59.7154736,41.4958757 C59.20635,41.4958757 58.793407,41.9088187 58.793407,42.4173663 L58.793407,42.4173663 C58.793407,42.925914 59.20635,43.338857 59.7154736,43.338857 L59.7154736,43.338857 L82.6392812,43.338857 C83.1484048,43.338857 83.5613478,42.925914 83.5613478,42.4173663 L83.5613478,42.4173663 C83.5613478,41.9088187 83.1484048,41.4958757 82.6392812,41.4958757 L82.6392812,41.4958757 L59.7154736,41.4958757 Z" id="Fill-13"></path>
                            <path d="M1.82282369,41.4958757 C1.3137001,41.4958757 0.901333039,41.9088187 0.901333039,42.4173663 L0.901333039,42.4173663 C0.901333039,42.925914 1.3137001,43.338857 1.82282369,43.338857 L1.82282369,43.338857 L23.7088025,43.338857 C24.2173501,43.338857 24.6297172,42.925914 24.6297172,42.4173663 L24.6297172,42.4173663 C24.6297172,41.9088187 24.2173501,41.4958757 23.7088025,41.4958757 L23.7088025,41.4958757 L1.82282369,41.4958757 Z" id="Fill-16"></path>
                            <path d="M65.8773663,66.6485388 C65.3682427,66.6485388 64.9558757,67.0609059 64.9558757,67.5700295 L64.9558757,67.5700295 C64.9558757,68.079153 65.3682427,68.4909442 65.8773663,68.4909442 L65.8773663,68.4909442 L73.2936382,68.4909442 C73.8027618,68.4909442 74.2151289,68.079153 74.2151289,67.5700295 L74.2151289,67.5700295 C74.2151289,67.0609059 73.8027618,66.6485388 73.2936382,66.6485388 L73.2936382,66.6485388 L65.8773663,66.6485388 Z" id="Fill-19"></path>
                            <path d="M8.91830166,66.6485388 C8.40975401,66.6485388 7.99738695,67.0609059 7.99738695,67.5700295 L7.99738695,67.5700295 C7.99738695,68.079153 8.40975401,68.4909442 8.91830166,68.4909442 L8.91830166,68.4909442 L17.6862852,68.4909442 C18.1954087,68.4909442 18.6071999,68.079153 18.6071999,67.5700295 L18.6071999,67.5700295 C18.6071999,67.0609059 18.1954087,66.6485388 17.6862852,66.6485388 L17.6862852,66.6485388 L8.91830166,66.6485388 Z" id="Fill-21"></path>
                            <path d="M32.0408057,26.0666667 C30.9724525,26.1115893 29.906403,26.5878848 29.0522964,27.4154986 C27.471364,28.945749 26.7076786,31.5121005 26.9011916,34.6394093 C26.9299882,35.1087936 26.9674238,35.5470776 27.0083149,35.9594447 C27.100464,36.8705686 27.2260171,37.709701 27.3907335,38.5004551 C27.0394152,38.6962719 26.7623921,39.0032435 26.586157,39.4058197 C25.7291707,41.3599558 27.5571778,45.2699558 28.8772131,46.6740772 L28.8772131,47.5782899 C28.8772131,48.9063883 29.636867,50.6566446 30.60616,51.5637369 L36.3257372,56.9129901 C36.470872,57.0477581 36.6344366,57.1433628 36.7928178,57.2366637 C37.2195831,57.4877699 37.591635,57.706048 37.6244631,58.5526676 C36.8400442,59.4499691 31.3623582,61.0568184 26.5907645,62.0266873 C25.0772161,62.4442377 23.3384784,63.7625453 22.5707615,65.0422654 C22.5241111,65.1292311 20.8279923,68.7921564 19.1094123,72.4792709 C18.8945898,72.9405921 19.0944381,73.4883031 19.5557593,73.7037016 C19.6813124,73.7618707 19.8137767,73.7900913 19.9439373,73.7900913 C20.291224,73.7900913 20.6235366,73.5931227 20.78019,73.2579305 C22.3847356,69.8161629 23.9696995,66.393977 24.1741553,65.9516615 C24.7126513,65.0894918 26.0090735,64.110408 26.9921888,63.8258978 C39.4697481,61.2854632 39.4703241,59.3255678 39.4703241,58.6805244 C39.4703241,56.6716748 38.2925438,55.9799809 37.726403,55.6476683 C37.6630505,55.6102327 37.6054574,55.5797084 37.5824201,55.5647341 L31.8651466,50.2177847 C31.2661776,49.6574032 30.7196185,48.3989925 30.7196185,47.5782899 L30.7196185,46.2870511 C30.7196185,46.0273059 30.6107674,45.7802313 30.4184062,45.605148 C30.3688761,45.5602254 30.319346,45.5135749 30.2646325,45.4582855 C28.887004,44.0731698 27.8555104,40.6492561 28.279972,40.1205509 C28.4510237,40.1631698 28.6358978,40.1585624 28.8132847,40.0952099 C29.2642392,39.9356768 29.5182251,39.4582295 29.3978554,38.9946045 C29.1438695,38.0201281 28.962451,36.9667492 28.8420813,35.7768744 C28.8034939,35.3875446 28.7677861,34.9740256 28.7412933,34.5276786 C28.5258948,31.0421402 29.6466578,29.4047665 30.3343202,28.7389895 C30.9436559,28.1486596 31.6975504,27.8485992 32.4024908,27.9148313 C32.7457461,27.9453557 33.0843939,27.7720003 33.2709957,27.4840345 C33.3003682,27.4396877 36.3101871,23.0683665 42.6782634,23.0286272 C50.6313036,22.9756415 52.9177522,30.9713006 53.5409103,34.4090367 C53.6837413,35.2072779 53.7522772,35.822373 53.7839535,36.1990323 C53.8749507,37.2489557 53.8519134,38.7089424 53.7154176,40.5392532 C53.6906525,40.8709898 53.84673,41.1906319 54.1237531,41.375506 C54.4019281,41.5598041 54.7572779,41.5805376 55.0527309,41.4284917 C55.1489115,41.3801134 55.2249345,41.3478612 55.2842554,41.3265518 C55.3925306,42.1184578 54.7071719,44.4204566 53.9446384,45.3407954 C53.8265724,45.4824746 53.720025,45.5919016 53.6186611,45.6754117 C53.4055664,45.8504949 53.2817411,46.1119679 53.2817411,46.3878392 L53.2817411,48.2331242 C53.2817411,49.0780159 52.7570673,50.3421859 52.1592503,50.9388511 L47.5345191,55.5416969 C46.9729857,56.0778892 45.7134232,57.2804345 45.9783517,59.0341464 C46.2547989,60.8805833 49.5681337,61.6183517 51.0413669,61.8562115 L57.3985005,63.6185624 C58.3844955,63.8927058 59.6999234,64.8827324 60.243027,65.7518132 C60.4411474,66.1814582 61.9454809,69.4245294 63.5028001,72.7666608 C63.7176226,73.227982 64.2664855,73.4284062 64.7272308,73.2130078 C65.1885521,72.9981853 65.3878244,72.4504743 65.1730019,71.9885771 C63.5022242,68.4016748 61.8924952,64.9288069 61.8924952,64.9288069 C61.0792797,63.5638489 59.3428458,62.2466932 57.891498,61.8429651 L51.4842584,60.0667919 C49.7316983,59.7822816 47.9872014,59.1441494 47.8005995,58.7600029 C47.6934762,58.0504551 48.1789866,57.4750994 48.7197864,56.9584887 L53.4597039,52.2439122 C54.3932891,51.3126307 55.1247223,49.5508558 55.1247223,48.2331242 L55.1247223,46.7858079 C55.203625,46.7040256 55.2831035,46.6153322 55.3625821,46.5185756 C56.3197805,45.3615289 57.8874665,41.5171852 56.6889527,40.0232184 C56.5340271,39.8297054 56.1971071,39.5106393 55.6309663,39.453622 C55.7029577,38.0736898 55.6989262,36.9494712 55.6205995,36.0418029 C55.5848917,35.6277081 55.5105966,34.9509884 55.3539431,34.0819075 C54.6507306,30.1972485 52.0164192,21.1856459 42.757166,21.1856459 C36.5186743,21.2236574 33.0826661,24.7788835 32.0408057,26.0666667 Z" id="Fill-23"></path>
                        </g>
                    </g>
                </g>
            </g>
        </g>
    </g>
</svg>