<?xml version="1.0" encoding="UTF-8" standalone="no"?>
<svg width="77px" height="83px" viewBox="0 0 77 83" version="1.1" xmlns="http://www.w3.org/2000/svg" xmlns:xlink="http://www.w3.org/1999/xlink">
    <!-- Generator: Sketch 41.2 (35397) - http://www.bohemiancoding.com/sketch -->
    <title>Page 1</title>
    <desc>Created with Sketch.</desc>
    <defs>
        <polygon id="path-1" points="38.1683168 82.8129308 0 82.8129308 0 0.00127692308 38.1683168 0.00127692308 76.3366336 0.00127692308 76.3366336 82.8129308"></polygon>
    </defs>
    <g id="Page-1" stroke="none" stroke-width="1" fill="none" fill-rule="evenodd">
        <g id="Homepage-V2_Main" transform="translate(-1087.000000, -950.000000)">
            <g id="Product-Section" transform="translate(0.000000, 750.000000)">
                <g id="Group-12" transform="translate(190.000000, 156.000000)">
                    <g id="Primetime" transform="translate(810.000000, 0.000000)">
                        <g id="Page-1" transform="translate(87.000000, 44.000000)">
                            <mask id="mask-2" fill="white">
                                <use xlink:href="#path-1"></use>
                            </mask>
                            <g id="Clip-2"></g>
                            <path d="M5.25924119,56.4891615 L8.18938985,56.4891615 L8.18938985,53.0287 L5.25924119,53.0287 L5.25924119,56.4891615 Z M4.47661601,58.0853154 L8.96888453,58.0853154 C9.40089362,58.0853154 9.7515097,57.7309692 9.7515097,57.2872385 L9.7515097,52.2306231 C9.7515097,51.7900846 9.40089362,51.4325462 8.96888453,51.4325462 L4.47661601,51.4325462 C4.04460691,51.4325462 3.69399083,51.7900846 3.69399083,52.2306231 L3.69399083,57.2872385 C3.69399083,57.7309692 4.04460691,58.0853154 4.47661601,58.0853154 L4.47661601,58.0853154 Z" id="Fill-1" fill="#344154" mask="url(#mask-2)"></path>
                            <path d="M14.7853548,56.4891615 L17.7155035,56.4891615 L17.7155035,53.0287 L14.7853548,53.0287 L14.7853548,56.4891615 Z M14.0027297,58.0853154 L18.4949982,58.0853154 C18.9270073,58.0853154 19.2776234,57.7309692 19.2776234,57.2872385 L19.2776234,52.2306231 C19.2776234,51.7900846 18.9270073,51.4325462 18.4949982,51.4325462 L14.0027297,51.4325462 C13.5707206,51.4325462 13.2201045,51.7900846 13.2201045,52.2306231 L13.2201045,57.2872385 C13.2201045,57.7309692 13.5707206,58.0853154 14.0027297,58.0853154 L14.0027297,58.0853154 Z" id="Fill-3" fill="#344154" mask="url(#mask-2)"></path>
                            <path d="M24.3114685,56.4891615 L27.2416172,56.4891615 L27.2416172,53.0287 L24.3114685,53.0287 L24.3114685,56.4891615 Z M23.5288433,58.0853154 L28.0211118,58.0853154 C28.4531209,58.0853154 28.803737,57.7309692 28.803737,57.2872385 L28.803737,52.2306231 C28.803737,51.7900846 28.4531209,51.4325462 28.0211118,51.4325462 L23.5288433,51.4325462 C23.0968342,51.4325462 22.7462181,51.7900846 22.7462181,52.2306231 L22.7462181,57.2872385 C22.7462181,57.7309692 23.0968342,58.0853154 23.5288433,58.0853154 L23.5288433,58.0853154 Z" id="Fill-4" fill="#344154" mask="url(#mask-2)"></path>
                            <path d="M33.8407126,56.4891615 L36.7677308,56.4891615 L36.7677308,53.0287 L33.8407126,53.0287 L33.8407126,56.4891615 Z M33.0580875,58.0853154 L37.550356,58.0853154 C37.9823651,58.0853154 38.3329812,57.7309692 38.3329812,57.2872385 L38.3329812,52.2306231 C38.3329812,51.7900846 37.9823651,51.4325462 37.550356,51.4325462 L33.0580875,51.4325462 C32.6260784,51.4325462 32.2754623,51.7900846 32.2754623,52.2306231 L32.2754623,57.2872385 C32.2754623,57.7309692 32.6260784,58.0853154 33.0580875,58.0853154 L33.0580875,58.0853154 Z" id="Fill-5" fill="#344154" mask="url(#mask-2)"></path>
                            <path d="M5.25924119,65.4403923 L8.18938985,65.4403923 L8.18938985,61.9767385 L5.25924119,61.9767385 L5.25924119,65.4403923 Z M4.47661601,67.0365462 L8.96888453,67.0365462 C9.40089362,67.0365462 9.7515097,66.6790077 9.7515097,66.2384692 L9.7515097,61.1786615 C9.7515097,60.7381231 9.40089362,60.3805846 8.96888453,60.3805846 L4.47661601,60.3805846 C4.04460691,60.3805846 3.69399083,60.7381231 3.69399083,61.1786615 L3.69399083,66.2384692 C3.69399083,66.6790077 4.04460691,67.0365462 4.47661601,67.0365462 L4.47661601,67.0365462 Z" id="Fill-6" fill="#344154" mask="url(#mask-2)"></path>
                            <path d="M14.7853548,65.4403923 L17.7155035,65.4403923 L17.7155035,61.9767385 L14.7853548,61.9767385 L14.7853548,65.4403923 Z M14.0027297,67.0365462 L18.4949982,67.0365462 C18.9270073,67.0365462 19.2776234,66.6790077 19.2776234,66.2384692 L19.2776234,61.1786615 C19.2776234,60.7381231 18.9270073,60.3805846 18.4949982,60.3805846 L14.0027297,60.3805846 C13.5707206,60.3805846 13.2201045,60.7381231 13.2201045,61.1786615 L13.2201045,66.2384692 C13.2201045,66.6790077 13.5707206,67.0365462 14.0027297,67.0365462 L14.0027297,67.0365462 Z" id="Fill-7" fill="#344154" mask="url(#mask-2)"></path>
                            <path d="M24.3114685,65.4403923 L27.2416172,65.4403923 L27.2416172,61.9767385 L24.3114685,61.9767385 L24.3114685,65.4403923 Z M23.5288433,67.0365462 L28.0211118,67.0365462 C28.4531209,67.0365462 28.803737,66.6790077 28.803737,66.2384692 L28.803737,61.1786615 C28.803737,60.7381231 28.4531209,60.3805846 28.0211118,60.3805846 L23.5288433,60.3805846 C23.0968342,60.3805846 22.7462181,60.7381231 22.7462181,61.1786615 L22.7462181,66.2384692 C22.7462181,66.6790077 23.0968342,67.0365462 23.5288433,67.0365462 L23.5288433,67.0365462 Z" id="Fill-8" fill="#344154" mask="url(#mask-2)"></path>
                            <path d="M33.8407126,65.4403923 L36.7677308,65.4403923 L36.7677308,61.9767385 L33.8407126,61.9767385 L33.8407126,65.4403923 Z M33.0580875,67.0365462 L37.550356,67.0365462 C37.9823651,67.0365462 38.3329812,66.6790077 38.3329812,66.2384692 L38.3329812,61.1786615 C38.3329812,60.7381231 37.9823651,60.3805846 37.550356,60.3805846 L33.0580875,60.3805846 C32.6260784,60.3805846 32.2754623,60.7381231 32.2754623,61.1786615 L32.2754623,66.2384692 C32.2754623,66.6790077 32.6260784,67.0365462 33.0580875,67.0365462 L33.0580875,67.0365462 Z" id="Fill-9" fill="#344154" mask="url(#mask-2)"></path>
                            <path d="M10.0551683,40.3105462 L31.9686732,40.3105462 L31.9686732,32.5277 L10.0551683,32.5277 L10.0551683,40.3105462 Z M32.7512984,30.9347385 L9.27254309,30.9347385 C8.840534,30.9347385 8.48991792,31.2922769 8.48991792,31.7328154 L8.48991792,41.1086231 C8.48991792,41.5523538 8.840534,41.9067 9.27254309,41.9067 L32.7512984,41.9067 C33.1833075,41.9067 33.5339236,41.5523538 33.5339236,41.1086231 L33.5339236,31.7328154 C33.5339236,31.2922769 33.1833075,30.9347385 32.7512984,30.9347385 L32.7512984,30.9347385 Z" id="Fill-10" fill="#344154" mask="url(#mask-2)"></path>
                            <path d="M74.7713833,81.2167769 L65.1638766,81.2167769 L65.1638766,71.3014692 C65.1638766,70.8609308 64.81013,70.5033923 64.3812514,70.5033923 L52.4164777,70.5033923 C51.9875991,70.5033923 51.6338526,70.8609308 51.6338526,71.3014692 L51.6338526,81.2167769 L42.0263459,81.2167769 L42.0263459,48.5435077 L42.0263459,11.7713154 L74.7713833,11.7713154 L74.7713833,81.2167769 Z M53.1991029,81.2167769 L63.5954958,81.2167769 L63.5954958,72.0995462 L53.1991029,72.0995462 L53.1991029,81.2167769 Z M15.8146635,81.2167769 L15.8146635,77.4019692 C15.8146635,74.4778154 18.1468865,72.0995462 21.0112946,72.0995462 C23.8788333,72.0995462 26.2110563,74.4778154 26.2110563,77.4019692 L26.2110563,81.2167769 L15.8146635,81.2167769 Z M1.56462425,73.9606615 L15.1854328,73.9606615 C14.6062902,74.9790077 14.2494131,76.1442 14.2494131,77.4019692 L14.2494131,81.2167769 L1.56462425,81.2167769 L1.56462425,73.9606615 Z M40.4610955,73.9606615 L40.4610955,81.2167769 L27.7763067,81.2167769 L27.7763067,77.4019692 C27.7763067,76.1442 27.4194296,74.9790077 26.840287,73.9606615 L40.4610955,73.9606615 Z M40.4610955,49.3415846 L40.4610955,72.3645077 L25.6006087,72.3645077 C24.3922354,71.2184692 22.7862885,70.5033923 21.0112946,70.5033923 C19.2363007,70.5033923 17.6303539,71.2184692 16.4251111,72.3645077 L1.56462425,72.3645077 L1.56462425,49.3415846 L40.4610955,49.3415846 Z M10.4802903,47.7422385 L31.5454295,47.7422385 L31.5454295,45.0990077 L10.4802903,45.0990077 L10.4802903,47.7422385 Z M6.92404146,43.5028538 L35.0985478,43.5028538 L35.0985478,29.3385846 L6.92404146,29.3385846 L6.92404146,43.5028538 Z M49.2578025,10.1751615 L67.5430572,10.1751615 L67.5430572,7.24462308 L49.2578025,7.24462308 L49.2578025,10.1751615 Z M46.0052123,5.64846923 L70.7956474,5.64846923 L70.7956474,1.59743077 L46.0052123,1.59743077 L46.0052123,5.64846923 Z M75.5540085,10.1751615 L69.105177,10.1751615 L69.105177,7.24462308 L71.5782726,7.24462308 C72.0071512,7.24462308 72.3608977,6.88708462 72.3608977,6.44654615 L72.3608977,0.799353846 C72.3608977,0.355623077 72.0071512,0.00127692308 71.5782726,0.00127692308 L45.2225871,0.00127692308 C44.790578,0.00127692308 44.4399619,0.355623077 44.4399619,0.799353846 L44.4399619,6.44654615 C44.4399619,6.88708462 44.790578,7.24462308 45.2225871,7.24462308 L47.6925522,7.24462308 L47.6925522,10.1751615 L41.2437207,10.1751615 C40.8117116,10.1751615 40.4610955,10.5295077 40.4610955,10.9732385 L40.4610955,47.7454308 L33.1075494,47.7454308 L33.1075494,45.0990077 L35.881173,45.0990077 C36.3131821,45.0990077 36.6637982,44.7446615 36.6637982,44.3009308 L36.6637982,28.5405077 C36.6637982,28.0999692 36.3131821,27.7424308 35.881173,27.7424308 L6.14141629,27.7424308 C5.70940719,27.7424308 5.35879111,28.0999692 5.35879111,28.5405077 L5.35879111,44.3009308 C5.35879111,44.7446615 5.70940719,45.0990077 6.14141629,45.0990077 L8.91503991,45.0990077 L8.91503991,47.7454308 L0.781999077,47.7454308 C0.35312048,47.7454308 -0.000626100141,48.0997769 -0.000626100141,48.5435077 L-0.000626100141,82.0148538 C-0.000626100141,82.4553923 0.35312048,82.8129308 0.781999077,82.8129308 L15.0320383,82.8129308 L26.9936815,82.8129308 L41.2437207,82.8129308 L52.4164777,82.8129308 L64.3812514,82.8129308 L75.5540085,82.8129308 C75.9860176,82.8129308 76.3366336,82.4553923 76.3366336,82.0148538 L76.3366336,10.9732385 C76.3366336,10.5295077 75.9860176,10.1751615 75.5540085,10.1751615 L75.5540085,10.1751615 Z" id="Fill-11" fill="#344154" mask="url(#mask-2)"></path>
                            <path d="M47.4083027,20.3586231 L69.3906787,20.3586231 L69.3906787,17.4312769 L47.4083027,17.4312769 L47.4083027,20.3586231 Z M46.6256775,21.9547769 L70.1733039,21.9547769 C70.605313,21.9547769 70.955929,21.5972385 70.955929,21.1567 L70.955929,16.6332 C70.955929,16.1926615 70.605313,15.8351231 70.1733039,15.8351231 L46.6256775,15.8351231 C46.1936684,15.8351231 45.8430524,16.1926615 45.8430524,16.6332 L45.8430524,21.1567 C45.8430524,21.5972385 46.1936684,21.9547769 46.6256775,21.9547769 L46.6256775,21.9547769 Z" id="Fill-12" fill="#344154" mask="url(#mask-2)"></path>
                            <path d="M47.4083027,28.6937385 L69.3906787,28.6937385 L69.3906787,25.7663923 L47.4083027,25.7663923 L47.4083027,28.6937385 Z M46.6256775,30.2898923 L70.1733039,30.2898923 C70.605313,30.2898923 70.955929,29.9323538 70.955929,29.4918154 L70.955929,24.9683154 C70.955929,24.5277769 70.605313,24.1702385 70.1733039,24.1702385 L46.6256775,24.1702385 C46.1936684,24.1702385 45.8430524,24.5277769 45.8430524,24.9683154 L45.8430524,29.4918154 C45.8430524,29.9323538 46.1936684,30.2898923 46.6256775,30.2898923 L46.6256775,30.2898923 Z" id="Fill-13" fill="#344154" mask="url(#mask-2)"></path>
                            <path d="M47.4083027,37.0288538 L69.3906787,37.0288538 L69.3906787,34.1015077 L47.4083027,34.1015077 L47.4083027,37.0288538 Z M46.6256775,38.6250077 L70.1733039,38.6250077 C70.605313,38.6250077 70.955929,38.2674692 70.955929,37.8269308 L70.955929,33.3034308 C70.955929,32.8597 70.605313,32.5053538 70.1733039,32.5053538 L46.6256775,32.5053538 C46.1936684,32.5053538 45.8430524,32.8597 45.8430524,33.3034308 L45.8430524,37.8269308 C45.8430524,38.2674692 46.1936684,38.6250077 46.6256775,38.6250077 L46.6256775,38.6250077 Z" id="Fill-14" fill="#344154" mask="url(#mask-2)"></path>
                            <path d="M47.4083027,45.3639692 L69.3906787,45.3639692 L69.3906787,42.4366231 L47.4083027,42.4366231 L47.4083027,45.3639692 Z M46.6256775,46.9601231 L70.1733039,46.9601231 C70.605313,46.9601231 70.955929,46.6025846 70.955929,46.1620462 L70.955929,41.6385462 C70.955929,41.1980077 70.605313,40.8404692 70.1733039,40.8404692 L46.6256775,40.8404692 C46.1936684,40.8404692 45.8430524,41.1980077 45.8430524,41.6385462 L45.8430524,46.1620462 C45.8430524,46.6025846 46.1936684,46.9601231 46.6256775,46.9601231 L46.6256775,46.9601231 Z" id="Fill-15" fill="#344154" mask="url(#mask-2)"></path>
                            <path d="M47.4083027,53.6990846 L69.3906787,53.6990846 L69.3906787,50.7717385 L47.4083027,50.7717385 L47.4083027,53.6990846 Z M46.6256775,55.2952385 L70.1733039,55.2952385 C70.605313,55.2952385 70.955929,54.9377 70.955929,54.4971615 L70.955929,49.9736615 C70.955929,49.5331231 70.605313,49.1755846 70.1733039,49.1755846 L46.6256775,49.1755846 C46.1936684,49.1755846 45.8430524,49.5331231 45.8430524,49.9736615 L45.8430524,54.4971615 C45.8430524,54.9377 46.1936684,55.2952385 46.6256775,55.2952385 L46.6256775,55.2952385 Z" id="Fill-16" fill="#344154" mask="url(#mask-2)"></path>
                            <path d="M47.4083027,62.0342 L69.3906787,62.0342 L69.3906787,59.1068538 L47.4083027,59.1068538 L47.4083027,62.0342 Z M46.6256775,63.6303538 L70.1733039,63.6303538 C70.605313,63.6303538 70.955929,63.2728154 70.955929,62.8322769 L70.955929,58.3087769 C70.955929,57.8682385 70.605313,57.5107 70.1733039,57.5107 L46.6256775,57.5107 C46.1936684,57.5107 45.8430524,57.8682385 45.8430524,58.3087769 L45.8430524,62.8322769 C45.8430524,63.2728154 46.1936684,63.6303538 46.6256775,63.6303538 L46.6256775,63.6303538 Z" id="Fill-17" fill="#344154" mask="url(#mask-2)"></path>
                        </g>
                    </g>
                </g>
            </g>
        </g>
    </g>
</svg>